<svg width="118" height="62" viewBox="0 0 118 62" fill="none" xmlns="http://www.w3.org/2000/svg">
<path d="M117 58.9777L13.3636 39.6518L3 41.5844L106.636 60.9103L117 58.9777Z" fill="#666666" stroke="#4D4D4D" stroke-miterlimit="1"/>
<path d="M117 58.9777L13.3636 39.6518V1L117 20.3259V58.9777Z" fill="#B3B3B3" stroke="#4D4D4D" stroke-miterlimit="1"/>
<path d="M13.3636 39.6518L3 41.5844V2.93259L13.3636 1V39.6518Z" fill="#999999" stroke="#4D4D4D" stroke-miterlimit="1"/>
<path d="M106.636 61L3 41.6741V3.02229L106.636 22.3482V61Z" fill="white" stroke="#4D4D4D" stroke-miterlimit="1"/>
<path d="M106.636 60.9103L117 58.9777V20.3259L106.636 22.2585V60.9103Z" fill="#4D4D4D" stroke="#4D4D4D" stroke-miterlimit="1"/>
<path d="M117 20.3259L13.3636 1L3 2.93259L106.636 22.2585L117 20.3259Z" fill="#4D4D4D" stroke="#4D4D4D" stroke-miterlimit="1"/>
<g filter="url(#filter0_d_3_114)">
<path d="M7.16786 22.6798L7.20247 23.1638C7.95827 22.9307 8.58828 22.8586 9.0925 22.9475C9.59672 23.0364 9.99467 23.2818 10.2863 23.6837C10.5859 24.087 10.7426 24.5926 10.7565 25.2004L10.8435 29.0034L10.2171 28.893L10.1302 25.09C10.1212 24.6981 10.0193 24.3575 9.82433 24.0682C9.62958 23.787 9.34312 23.613 8.96495 23.5463C8.58678 23.4796 8.00386 23.5521 7.21618 23.7637L7.3218 28.3825L6.69546 28.272L6.56516 22.5735L7.16786 22.6798ZM12.3387 26.4472C12.2939 24.4878 13.0238 23.6407 14.5286 23.906C16.0334 24.1714 16.8082 25.2838 16.853 27.2433C16.8978 29.2027 16.1678 30.0498 14.6631 29.7845C13.1583 29.5191 12.3835 28.4067 12.3387 26.4472ZM14.5429 24.5299C13.4872 24.3437 12.977 25.0224 13.0123 26.566C13.0476 28.1096 13.5931 28.9745 14.6488 29.1606C15.7045 29.3468 16.2147 28.6681 16.1794 27.1245C16.1441 25.5809 15.5986 24.716 14.5429 24.5299ZM18.1638 25.3714L18.1501 24.7716L19.2964 24.9737L19.2632 23.5221L19.8868 23.5126L19.9227 25.0842L22.629 25.5613L22.6427 26.1612L19.9364 25.684L19.999 28.4193C20.0129 29.0271 20.1096 29.4823 20.2891 29.7848C20.4764 30.0807 20.7985 30.2689 21.2554 30.3495C21.4288 30.38 21.696 30.3993 22.0571 30.4072C22.4181 30.4071 22.665 30.3949 22.7978 30.3705L22.953 30.9834C22.8046 31.013 22.5303 31.0243 22.1299 31.0175C21.7375 31.012 21.4506 30.9933 21.2694 30.9613C20.5604 30.8363 20.0715 30.5629 19.803 30.1412C19.5342 29.7114 19.3909 29.1086 19.3732 28.3328L19.3101 25.5736L18.1638 25.3714ZM24.5047 31.4123L24.491 30.8125L26.2164 31.1167L26.1135 26.6179L24.3881 26.3136L24.3744 25.7138L26.7261 26.1285L26.8427 31.2271L28.5681 31.5314L28.5818 32.1312L24.5047 31.4123ZM25.813 24.2827C25.8093 24.1227 25.8498 24.0064 25.9344 23.9337C26.027 23.8624 26.152 23.8407 26.3096 23.8684C26.6326 23.9254 26.7981 24.1298 26.8062 24.4817C26.8142 24.8336 26.6567 24.9771 26.3335 24.9122C25.9947 24.8524 25.8212 24.6426 25.813 24.2827ZM30.0652 29.5729C30.0204 27.6134 30.7504 26.7664 32.2552 27.0317C33.76 27.297 34.5348 28.4094 34.5796 30.3689C34.6244 32.3284 33.8944 33.1755 32.3896 32.9101C30.8848 32.6448 30.11 31.5324 30.0652 29.5729ZM32.2694 27.6555C31.2137 27.4694 30.7035 28.1481 30.7388 29.6917C30.7741 31.2353 31.3196 32.1002 32.3753 32.2863C33.431 32.4725 33.9413 31.7937 33.906 30.2501C33.8707 28.7065 33.3252 27.8417 32.2694 27.6555ZM36.7121 27.8893L36.7467 28.3733C37.5025 28.1401 38.1325 28.068 38.6367 28.1569C39.141 28.2458 39.5389 28.4912 39.8306 28.8932C40.1301 29.2965 40.2868 29.802 40.3007 30.4099L40.3877 34.2129L39.7614 34.1025L39.6744 30.2994C39.6654 29.9076 39.5635 29.567 39.3686 29.2777C39.1738 28.9964 38.8873 28.8224 38.5092 28.7558C38.131 28.6891 37.5481 28.7615 36.7604 28.9731L36.866 33.5919L36.2397 33.4815L36.1094 27.783L36.7121 27.8893ZM47.6789 29.823L48.388 29.948L50.1651 35.0886L50.2596 35.1052L51.6378 30.5211L52.3469 30.6461L50.325 36.9329C50.1346 37.5286 49.9272 37.8943 49.7027 38.03C49.4861 38.1671 49.0353 38.1832 48.3503 38.0783L48.3363 37.4665C48.7773 37.5363 49.0713 37.5244 49.2182 37.4308C49.3651 37.3372 49.4973 37.1096 49.6145 36.7479L49.8674 35.9681L47.6789 29.823ZM53.7006 33.7405C53.6558 31.781 54.3858 30.9339 55.8906 31.1992C57.3953 31.4646 58.1701 32.577 58.215 34.5365C58.2598 36.496 57.5298 37.343 56.025 37.0777C54.5202 36.8124 53.7454 35.7 53.7006 33.7405ZM55.9048 31.8231C54.8491 31.6369 54.3389 32.3157 54.3742 33.8592C54.4095 35.4028 54.955 36.2677 56.0107 36.4539C57.0664 36.64 57.5766 35.9613 57.5413 34.4177C57.506 32.8741 56.9605 32.0092 55.9048 31.8231ZM63.3968 38.27L63.3619 37.774C62.6147 38.0405 61.989 38.1293 61.4848 38.0404C60.9805 37.9515 60.5787 37.7054 60.2791 37.3021C59.9796 36.8988 59.8228 36.3932 59.8089 35.7854L59.7211 31.9464L60.3475 32.0568L60.4353 35.8958C60.4442 36.2877 60.5422 36.6276 60.7293 36.9155C60.924 37.1968 61.2105 37.3707 61.5887 37.4374C61.9668 37.5041 62.5531 37.4083 63.3476 37.1501L63.2428 32.5673L63.8692 32.6778L63.9995 38.3763L63.3968 38.27ZM65.843 38.7014L65.8293 38.1015L67.1765 38.3391L67.0736 33.8402L65.7264 33.6027L65.7127 33.0028L67.6863 33.3508L67.7258 34.0508C67.9743 33.9353 68.3251 33.8379 68.7784 33.7585C69.2317 33.6791 69.6313 33.654 69.9773 33.6831L70.1072 33.706L70.1234 34.4138L69.9934 34.3909C69.671 34.358 69.271 34.3671 68.7935 34.4183C68.3239 34.4709 67.9726 34.5484 67.7395 34.6507L67.8265 38.4537L69.7173 38.7871L69.731 39.3869L65.843 38.7014ZM77.6738 35.6974L77.6604 35.1095L80.733 35.6513L80.8661 41.4698C80.8792 42.0457 80.7321 42.4738 80.4246 42.7541C80.1941 42.9684 79.7339 43.0863 79.0438 43.1081C78.7928 43.1116 78.4514 43.1071 78.0195 43.0947L77.9344 42.4584C78.6332 42.478 79.1115 42.4628 79.3693 42.4127C79.6273 42.3705 79.8064 42.3105 79.9066 42.2326C80.1376 42.0423 80.2487 41.7513 80.2397 41.3594L80.1201 36.1287L77.6738 35.6974ZM79.7489 33.7931C79.741 33.4492 79.9104 33.3078 80.2571 33.3689C80.588 33.4272 80.7575 33.6364 80.7658 33.9963C80.7738 34.3482 80.6124 34.495 80.2815 34.4366C80.1161 34.4074 79.985 34.3365 79.8882 34.2239C79.7992 34.1046 79.7527 33.961 79.7489 33.7931ZM83.2448 38.9499C83.2 36.9904 83.93 36.1434 85.4348 36.4087C86.9396 36.674 87.7144 37.7864 87.7592 39.7459C87.804 41.7054 87.074 42.5525 85.5692 42.2872C84.0644 42.0218 83.2896 40.9094 83.2448 38.9499ZM85.4491 37.0325C84.3933 36.8464 83.8831 37.5251 83.9184 39.0687C83.9537 40.6123 84.4992 41.4772 85.555 41.6633C86.6107 41.8495 87.1209 41.1707 87.0856 39.6271C87.0503 38.0835 86.5048 37.2187 85.4491 37.0325ZM89.4311 42.8606L89.249 34.8947L89.8753 35.0051L89.9398 37.8244C90.5212 37.5127 91.0521 37.3992 91.5327 37.4839C92.2418 37.6089 92.795 37.9534 93.1924 38.5174C93.5896 39.0733 93.7986 39.8072 93.8195 40.7189C93.8403 41.6307 93.6405 42.3283 93.22 42.8117C92.7993 43.2872 92.2147 43.4589 91.4662 43.327C91.0093 43.2464 90.5339 43.0471 90.0402 42.729L90.022 42.9648L89.4311 42.8606ZM93.1461 40.6121C93.13 39.9083 92.9796 39.3362 92.6949 38.8956C92.4181 38.4565 92.0236 38.1918 91.5115 38.1015C90.9994 38.0112 90.4807 38.1468 89.9554 38.5082L90.0377 42.1072C90.205 42.2164 90.4314 42.336 90.7168 42.466C91.01 42.5893 91.2471 42.667 91.4283 42.699C91.9798 42.7962 92.408 42.6487 92.7129 42.2563C93.0178 41.864 93.1622 41.316 93.1461 40.6121ZM94.4651 45.2776L94.4533 44.7617L100.362 45.8036L100.374 46.3195L94.4651 45.2776Z" fill="black"/>
</g>
<defs>
<filter id="filter0_d_3_114" x="0.713309" y="18.5061" width="105.482" height="38.5491" filterUnits="userSpaceOnUse" color-interpolation-filters="sRGB">
<feFlood flood-opacity="0" result="BackgroundImageFix"/>
<feColorMatrix in="SourceAlpha" type="matrix" values="0 0 0 0 0 0 0 0 0 0 0 0 0 0 0 0 0 0 127 0" result="hardAlpha"/>
<feOffset dy="4"/>
<feGaussianBlur stdDeviation="2.9"/>
<feComposite in2="hardAlpha" operator="out"/>
<feColorMatrix type="matrix" values="0 0 0 0 0 0 0 0 0 0 0 0 0 0 0 0 0 0 0.25 0"/>
<feBlend mode="normal" in2="BackgroundImageFix" result="effect1_dropShadow_3_114"/>
<feBlend mode="normal" in="SourceGraphic" in2="effect1_dropShadow_3_114" result="shape"/>
</filter>
</defs>
</svg>
